# xmcd CD database file
#
# Track frame offsets:
#	150
#	15634
#	99298
#	114448
#	191015
#
# Disc length: 3109 seconds
#
# Revision: 0
# Processed by: cddbd v1.5.1PL0 Copyright (c) Steve Scherf et al.
# Submitted via: CDex 1.51
#
DISCID=330c2305
DTITLE=Kurt Tepperwein - Be Rich
DYEAR=2004
DGENRE=New Age
TTITLE0=Affirmationen 1
TTITLE1=Subliminar 1
TTITLE2=Affirmationen 2
TTITLE3=Subliminar 2
TTITLE4=Affirmationen Repeat
EXTD=YEAR: 2004
EXTT0=
EXTT1=
EXTT2=
EXTT3=
EXTT4=
PLAYORDER=
